<?xml version="1.0" encoding="UTF-8" standalone="no"?>
<svg
   xmlns:dc="http://purl.org/dc/elements/1.1/"
   xmlns:cc="http://creativecommons.org/ns#"
   xmlns:rdf="http://www.w3.org/1999/02/22-rdf-syntax-ns#"
   xmlns:svg="http://www.w3.org/2000/svg"
   xmlns="http://www.w3.org/2000/svg"
   xmlns:sodipodi="http://sodipodi.sourceforge.net/DTD/sodipodi-0.dtd"
   xmlns:inkscape="http://www.inkscape.org/namespaces/inkscape"
   version="1.1"
   width="512px"
   height="512px"
   viewBox="0 0 1 1"
   preserveAspectRatio="xMidYMid"
   id="svg2"
   inkscape:version="0.48.2 r9819"
   sodipodi:docname="bitcoin-logo-noshadow.svg">
  <metadata
     id="metadata22">
    <rdf:RDF>
      <cc:Work
         rdf:about="">
        <dc:format>image/svg+xml</dc:format>
        <dc:type
           rdf:resource="http://purl.org/dc/dcmitype/StillImage" />
        <dc:title></dc:title>
      </cc:Work>
    </rdf:RDF>
  </metadata>
  <sodipodi:namedview
     pagecolor="#ffffff"
     bordercolor="#666666"
     borderopacity="1"
     objecttolerance="10"
     gridtolerance="10"
     guidetolerance="10"
     inkscape:pageopacity="0"
     inkscape:pageshadow="2"
     inkscape:window-width="1447"
     inkscape:window-height="861"
     id="namedview20"
     showgrid="false"
     inkscape:zoom="0.921875"
     inkscape:cx="212.35897"
     inkscape:cy="233.24841"
     inkscape:window-x="0"
     inkscape:window-y="0"
     inkscape:window-maximized="0"
     inkscape:current-layer="svg2" />
  <!-- Bitcoin Color -->
  <g
     id="g4">
    <linearGradient
       id="linearGradient4141"
       gradientUnits="userSpaceOnUse"
       x1="0%"
       y1="0%"
       x2="100%"
       y2="100%">
      <stop
         offset="0%"
         style="stop-color:#F9AA4B"
         id="stop4143" />
      <stop
         offset="100%"
         style="stop-color:#F7931A"
         id="stop4145" />
    </linearGradient>
  </g>
  <g
     id="g8"
     transform="matrix(0.91491616,0,0,0.91491616,0.04254192,0.04254192)">
    <path
       id="path10"
       d="M 1.000,0.500 C 1.000,0.776 0.776,1.000 0.500,1.000 0.224,1.000 0.000,0.776 0.000,0.500 0.000,0.224 0.224,0.000 0.500,0.000 0.776,0.000 1.000,0.224 1.000,0.500 z"
       style="fill:url(#linearGradient4141)"
       inkscape:connector-curvature="0" />
  </g>
  <g
     id="g12"
     transform="matrix(0.85,0,0,0.85,0.075,0.075)">
    <path
       id="path14"
       d="M 0.609,0.315 C 0.609,0.287 0.586,0.265 0.558,0.265 L 0.442,0.265 0.442,0.365 0.558,0.365 C 0.586,0.365 0.609,0.343 0.609,0.315 z M 0.635,0.500 C 0.635,0.472 0.613,0.450 0.585,0.450 L 0.442,0.450 0.442,0.550 0.585,0.550 C 0.613,0.550 0.635,0.528 0.635,0.500 z M 0.679,0.373 C 0.711,0.383 0.735,0.412 0.735,0.446 0.735,0.465 0.728,0.483 0.716,0.496 0.740,0.512 0.755,0.539 0.755,0.570 0.755,0.621 0.713,0.662 0.662,0.662 L 0.338,0.662 0.338,0.153 0.662,0.153 C 0.713,0.153 0.755,0.194 0.755,0.245 0.755,0.290 0.723,0.328 0.679,0.338 0.679,0.350 0.679,0.361 0.679,0.373 z"
       style="fill:#ffffff"
       inkscape:connector-curvature="0" />
  </g>
</svg>
